# xmcd CD database file
#
# Track frame offsets:
#	150
#	14312
#	31097
#	48577
#	64637
#	86147
#	96145
#	112500
#	127000
#	145075
#	159412
#	179542
#
# Disc length: 2641 seconds
#
# Revision: 5
# Processed by: cddbd v1.4PL0 Copyright (c) Steve Scherf et al.
# Submitted via: CDex 1.50Beta7
#
DISCID=940a4f0c
DTITLE=Eels - Beautiful Freak
DYEAR=1996
DGENRE=Rock
TTITLE0=Novocaine for the Soul
TTITLE1=Susan's House
TTITLE2=Rags to Rags
TTITLE3=Beautiful Freak
TTITLE4=Not Ready Yet
TTITLE5=My Beloved Monster
TTITLE6=Flower
TTITLE7=Guest List
TTITLE8=Mental
TTITLE9=Spunky
TTITLE10=Your Lucky Day in Hell
TTITLE11=Manchild
EXTD=YEAR: 1996
EXTT0=
EXTT1=
EXTT2=
EXTT3=
EXTT4=
EXTT5=
EXTT6=
EXTT7=
EXTT8=
EXTT9=
EXTT10=
EXTT11=
PLAYORDER=
